<?xml version="1.0" standalone="no"?><!-- Generator: Gravit.io --><svg xmlns="http://www.w3.org/2000/svg" xmlns:xlink="http://www.w3.org/1999/xlink" style="isolation:isolate" viewBox="0 0 250 250" width="250" height="250"><defs><clipPath id="_clipPath_rkmgaQjcAlgiNIsBiTcLepPnQeaHZERH"><rect width="250" height="250"/></clipPath></defs><g clip-path="url(#_clipPath_rkmgaQjcAlgiNIsBiTcLepPnQeaHZERH)"><rect width="250" height="250" style="fill:rgb(132,219,255)" fill-opacity="0"/><g style="isolation:isolate"><circle vector-effect="non-scaling-stroke" cx="125" cy="124.99999999999999" r="125" fill="rgb(190,227,202)"/><clipPath id="_clipPath_3mkrxQXmfmlveGplrdQoZks4ScCviEje"><circle vector-effect="non-scaling-stroke" cx="125" cy="124.99999999999999" r="125" fill="rgb(190,227,202)"/></clipPath><g clip-path="url(#_clipPath_3mkrxQXmfmlveGplrdQoZks4ScCviEje)"><rect x="0" y="200" width="250" height="50" transform="matrix(1,0,0,1,0,0)" fill="rgb(143,194,184)"/></g><g><path d=" M 52 140 L 201 140 C 192.754 156.429 193.5 176.625 201 193 L 52 193 L 52 140 Z " fill="rgb(235,235,235)"/><line x1="49" y1="149" x2="196.875" y2="149" vector-effect="non-scaling-stroke" stroke-width="1" stroke="rgb(239,240,240)" stroke-linejoin="miter" stroke-linecap="square" stroke-miterlimit="3"/><line x1="48.5" y1="156" x2="195.375" y2="156" vector-effect="non-scaling-stroke" stroke-width="1" stroke="rgb(239,240,240)" stroke-linejoin="miter" stroke-linecap="square" stroke-miterlimit="3"/><line x1="48" y1="163" x2="194.875" y2="163" vector-effect="non-scaling-stroke" stroke-width="1" stroke="rgb(239,240,240)" stroke-linejoin="miter" stroke-linecap="square" stroke-miterlimit="3"/><line x1="49" y1="170" x2="194.875" y2="170" vector-effect="non-scaling-stroke" stroke-width="1" stroke="rgb(239,240,240)" stroke-linejoin="miter" stroke-linecap="square" stroke-miterlimit="3"/><line x1="50.063" y1="177" x2="195.938" y2="177" vector-effect="non-scaling-stroke" stroke-width="1" stroke="rgb(239,240,240)" stroke-linejoin="miter" stroke-linecap="square" stroke-miterlimit="3"/><line x1="50.063" y1="185" x2="197" y2="185" vector-effect="non-scaling-stroke" stroke-width="1" stroke="rgb(239,240,240)" stroke-linejoin="miter" stroke-linecap="square" stroke-miterlimit="3"/><path d=" M 198.875 196 L 55.44 196 C 51.334 196 48 192.666 48 188.56 L 48 144.44 C 48 140.334 51.334 137 55.44 137 L 198.56 137" fill="none" vector-effect="non-scaling-stroke" stroke-width="8" stroke="rgb(72,70,70)" stroke-linejoin="miter" stroke-linecap="square" stroke-miterlimit="3"/></g><g><path d=" M 42.085 83.441 L 157 83.441 C 150.64 96.806 151.216 113.237 157 126.559 L 42.085 126.559 L 42.085 83.441 Z " fill="rgb(235,235,235)"/><line x1="39.771" y1="90.763" x2="153.819" y2="90.763" vector-effect="non-scaling-stroke" stroke-width="1" stroke="rgb(239,240,240)" stroke-linejoin="miter" stroke-linecap="square" stroke-miterlimit="3"/><line x1="39.386" y1="96.458" x2="152.662" y2="96.458" vector-effect="non-scaling-stroke" stroke-width="1" stroke="rgb(239,240,240)" stroke-linejoin="miter" stroke-linecap="square" stroke-miterlimit="3"/><line x1="39" y1="102.153" x2="152.276" y2="102.153" vector-effect="non-scaling-stroke" stroke-width="1" stroke="rgb(239,240,240)" stroke-linejoin="miter" stroke-linecap="square" stroke-miterlimit="3"/><line x1="39.771" y1="107.847" x2="152.276" y2="107.847" vector-effect="non-scaling-stroke" stroke-width="1" stroke="rgb(239,240,240)" stroke-linejoin="miter" stroke-linecap="square" stroke-miterlimit="3"/><line x1="40.591" y1="113.542" x2="153.096" y2="113.542" vector-effect="non-scaling-stroke" stroke-width="1" stroke="rgb(239,240,240)" stroke-linejoin="miter" stroke-linecap="square" stroke-miterlimit="3"/><line x1="40.591" y1="120.051" x2="153.915" y2="120.051" vector-effect="non-scaling-stroke" stroke-width="1" stroke="rgb(239,240,240)" stroke-linejoin="miter" stroke-linecap="square" stroke-miterlimit="3"/><path d=" M 155.361 129 L 44.738 129 C 41.571 129 39 126.288 39 122.947 L 39 87.053 C 39 83.712 41.571 81 44.738 81 L 155.118 81" fill="none" vector-effect="non-scaling-stroke" stroke-width="8" stroke="rgb(216,171,147)" stroke-linejoin="miter" stroke-linecap="square" stroke-miterlimit="3"/></g><ellipse vector-effect="non-scaling-stroke" cx="128.00000000000003" cy="78.50000000000003" rx="36" ry="36.5" fill="rgb(127,210,244)" stroke-width="6" stroke="rgb(123,152,146)" stroke-linejoin="miter" stroke-linecap="square" stroke-miterlimit="3"/><line x1="208" y1="158" x2="154" y2="104" vector-effect="non-scaling-stroke" stroke-width="6" stroke="rgb(123,152,146)" stroke-linejoin="miter" stroke-linecap="square" stroke-miterlimit="3"/><path d="M 167.649 107.749 L 214.598 154.699 C 215.62 155.721 215.62 157.38 214.598 158.402 L 208.402 164.598 C 207.38 165.62 205.721 165.62 204.699 164.598 L 157.749 117.649 C 156.727 116.627 156.727 114.968 157.749 113.946 L 163.946 107.749 C 164.968 106.727 166.627 106.727 167.649 107.749 Z" style="stroke:none;fill:#FFFFFF;stroke-miterlimit:10;"/><rect x="160.328" y="129.226" width="51.712" height="14.049" transform="matrix(0.707,0.707,-0.707,0.707,150.875,-91.745)" fill="rgb(255,191,180)"/></g></g></svg>